<svg width="730" height="233" viewBox="0 0 730 233" fill="none" xmlns="http://www.w3.org/2000/svg">
<path d="M15 219H53.7V91.2L109.8 173.1H132.9L189 91.2V219H227.7V5.99999H197.7L121.2 121.2L45 5.99999H15V219ZM328.978 222C371.878 222 409.078 189.9 409.078 143.1C409.078 97.2 373.678 63 328.978 63C285.478 63 247.078 94.8 247.078 143.1C247.078 190.8 284.278 222 328.978 222ZM328.678 186C303.178 186 283.678 167.1 283.678 143.1C283.678 118.5 303.778 99 328.678 99C354.478 99 372.478 118.8 372.478 143.1C372.478 167.7 352.678 186 328.678 186ZM498.961 63C484.261 63 472.861 69 464.461 78V66H428.461V219H464.461V128.1C464.461 111.3 477.961 97.5 494.761 97.5C511.261 97.5 524.761 111.3 524.761 128.1V219H560.761V134.1C560.761 102.6 546.961 63 498.961 63ZM648.884 63C627.584 63 597.284 75.3 589.784 102.3L622.484 113.7C624.584 104.7 634.184 97.2 649.484 97.2C668.984 97.2 678.584 112.8 678.584 120.6V121.5C627.284 123 581.684 134.7 581.684 176.7C581.684 197.4 598.184 222.3 635.384 222.3C651.584 222.3 666.884 215.1 678.584 204.9V219.3H713.984V134.7C713.984 89.1 687.284 63.3 648.884 63.3V63ZM635.384 187.5C625.484 187.5 618.284 181.8 618.284 174.9C618.284 155.1 656.084 153.9 678.284 153.9C675.884 172.8 653.684 187.5 635.384 187.5Z" fill="white"/>
</svg>
