<svg xmlns="http://www.w3.org/2000/svg" fill="none" viewBox="0 0 81 48">
  <path fill="#dd0eff" d="M41.143 3.154l.274 1.875h3.795L44.114 0H39.04l-3.108 5.029h4.16l1.051-1.875zM45.257 13.12L43.84 6.4h-3.795l.275 1.874h-2.697L38.72 6.4h-4.16l-4.115 6.72h4.48l.96-1.737h4.938l.274 1.737h4.16zM57.052 12.297c1.325-.548 2.331-1.371 3.017-2.377.686-1.006 1.051-2.148 1.051-3.52h-4.342c0 .137.045.229.045.366 0 .96-.32 1.691-1.005 2.24-.686.548-1.555.823-2.652.823H51.52l.686-3.429H48l-1.371 6.72h5.76c1.783 0 3.337-.274 4.663-.823zM53.943 3.291h1.69c.87 0 1.51.183 1.921.503.32.275.548.686.594 1.235h4.343v-.046c0-1.646-.548-2.88-1.6-3.749-1.051-.823-2.606-1.28-4.709-1.28h-5.76l-1.05 5.075h4.16l.41-1.738zM68.8 8.914L70.901 6.4h-7.314l1.006 2.332-.915 4.388h4.252l.868-4.206zM72.274 5.029L76.57 0h-4.572l-3.337 4.16-1.6-4.16h-4.388l2.286 5.029h7.314zM11.885 2.926h1.829c.594 0 1.051.091 1.28.228.274.137.365.412.365.777 0 .549-.274.915-.823 1.098h4.618c.137-.412.228-.869.228-1.372 0-1.143-.411-2.057-1.28-2.697C17.233.32 16.091 0 14.628 0H8.41l-.595 2.926h4.069zM32.96 0H22.356l-.64 2.971h10.651L32.961 0zM27.017 5.486l.137-.64H21.44l-.137.64-.457 2.285h5.714l.457-2.285zM29.942 10.149h-10.79l-.593 2.971h10.788l.595-2.971zM24.183 26.743H18.24l.686-3.337h-4.252l-1.371 6.72h10.194l.686-3.383zM16.045 22.034h4.251l1.006-5.028h-4.206l-1.051 5.028zM30.31 28.389h4.89l.32 1.737h4.16l-1.462-6.72h-3.749l.274 1.874h-2.697l1.052-1.874h-4.115l-4.114 6.72h4.48l.96-1.737zM33.462 17.006l-3.109 5.028h4.115l1.051-1.874.32 1.874h3.749l-1.052-5.028h-5.074zM42.926 25.737l-.914 4.389h4.252l.868-4.206 2.103-2.514h-7.36l1.051 2.331zM50.332 17.006l-3.338 4.16-1.6-4.16h-4.388l2.24 5.028h7.36l4.297-5.028h-4.571zM8.823 19.749c.595 0 1.052.091 1.28.228.274.137.366.366.366.732 0 .868-.64 1.28-1.966 1.325h5.76c.229-.502.32-1.097.32-1.737 0-1.188-.411-2.103-1.188-2.697-.823-.594-2.012-.914-3.612-.914H3.886l-.64 3.063h5.577zM12.937 23.406H1.417L0 30.126h4.069l.777-3.612h1.783c2.057 0 3.657-.411 4.845-1.28a4.346 4.346 0 001.463-1.828zM9.325 9.28h2.011l1.554 3.886h4.48L15.267 8.64c.869-.366 1.555-.869 2.012-1.509.183-.228.32-.502.411-.777H5.942L4.57 13.12h3.932l.823-3.84zM67.017 17.052H56.366l-.594 2.97h10.605l.64-2.97zM54.857 25.006h5.715l.548-2.926h-5.714l-.549 2.926zM52.617 30.171h10.789L64 27.2H53.212l-.595 2.971zM79.36 17.966c-.869-.64-2.011-.96-3.474-.96h-6.218l-.594 2.926h5.897c.595 0 1.052.091 1.28.228.275.137.366.412.366.777 0 .549-.274.915-.823 1.097h4.617a4.31 4.31 0 00.229-1.371c0-1.143-.457-2.057-1.28-2.697zM78.537 24.092a2.54 2.54 0 00.411-.777H67.2l-1.372 6.81h3.932l.822-3.885h2.012l1.554 3.886h4.48L76.525 25.6c.869-.366 1.555-.868 2.012-1.508zM29.027 37.897h10.606l.64-3.017H29.622l-.595 3.017zM34.377 39.909h-5.714l-.595 2.925h5.715l.594-2.925zM25.875 48h10.743l.64-2.971H26.469L25.875 48zM11.291 39.909h6.811l-1.188-5.029h-4.572l-1.051 5.029zM27.886 34.88h-4.845l-3.246 5.029h7.086l1.005-5.029zM17.189 43.246l-.457-1.966H9.92L8.55 48h3.794l1.189-5.669L14.766 48h3.063l3.611-5.806L20.252 48h3.885l1.372-6.72h-7.086l-1.234 1.966z"/>
</svg>
