<svg xmlns="http://www.w3.org/2000/svg" width="1883" height="760" viewBox="0 0 1883 760" fill="none">
<path d="M1257.57 389.44V491.72H1351.16V759.207H1468.51V491.72H1560.94V389.44H1257.57Z" fill="#6366F1"/>
<path d="M1238.8 759.21V389.44H1122.1V759.21H1238.8Z" fill="#6366F1"/>
<path fill-rule="evenodd" clip-rule="evenodd" d="M1042.16 560.821C1074.36 546.28 1090.46 520.313 1090.46 483.44C1090.46 456.954 1080.07 434.623 1060.34 416.446C1040.08 398.788 1007.36 389.44 962.702 389.44H805.015V759.207H966.337C1012.04 759.207 1046.83 749.86 1070.2 730.644C1093.57 711.948 1105.52 684.942 1105.52 650.147C1105.52 630.932 1099.29 612.755 1087.86 596.136C1076.44 579.517 1060.86 568.092 1042.16 560.821ZM978.469 526.594H891.74V491.83H978.469V526.594ZM891.74 623.675V658.505H978.469V623.675H891.74Z" fill="#6366F1"/>
<path d="M1883 0.790541H1579.71V370.558H1883V269.807H1697.08V235.011H1868.98V137.895H1697.08V103.027H1883V0.790541Z" fill="#6366F1"/>
<path d="M1560.95 0.790541H1257.66V370.558H1560.95V269.807H1375.03V235.011H1546.93V137.895H1375.03V103.031H1560.95V0.790541Z" fill="#6366F1"/>
<path d="M1883 389.44H1579.71V623.661H1767.5V658.507H1579.71V759.207H1883V526.545H1697.08V491.717H1883V389.44Z" fill="#6366F1"/>
<path d="M1013.66 141.01C1015.72 148.281 1018.3 163.343 1021.91 185.155C1025.52 163.343 1028.1 148.281 1030.16 141.01L1058.01 0.789551H1238.8V370.557H1122.11V137.918H1087.36V370.557H956.46V137.918H921.71V370.557H805.015V0.789551H985.803L1013.66 141.01Z" fill="#6366F1"/>
<path fill-rule="evenodd" clip-rule="evenodd" d="M0 0.789551H786.304V759.21H0V0.789551ZM174.734 292.633H262.101V467.367H174.734V292.633ZM524.203 292.633H611.57V467.367H524.203V292.633Z" fill="#6366F1"/>
</svg>
