<?xml version="1.0" standalone="no"?>
<!DOCTYPE svg PUBLIC "-//W3C//DTD SVG 20010904//EN"
 "http://www.w3.org/TR/2001/REC-SVG-20010904/DTD/svg10.dtd">
<svg version="1.0" xmlns="http://www.w3.org/2000/svg"
 width="1000.000000pt" height="1000.000000pt" viewBox="0 0 1000.000000 1000.000000"
 preserveAspectRatio="xMidYMid meet">
<metadata>
Created by potrace 1.14, written by Peter Selinger 2001-2017
</metadata>
<g transform="translate(0.000000,1000.000000) scale(0.100000,-0.100000)"
fill="#000000" stroke="none">
<path d="M0 5000 l0 -5000 5000 0 5000 0 0 5000 0 5000 -5000 0 -5000 0 0
-5000z m3853 1592 c924 -1397 1142 -1721 1153 -1710 6 7 524 784 1149 1726
l1137 1712 449 0 449 0 0 -3195 0 -3195 -580 0 -580 0 -2 1913 -3 1913 -836
-1221 -836 -1220 -350 -3 -351 -2 -839 1224 -838 1224 -3 -1914 -2 -1914 -580
0 -580 0 0 3195 0 3195 452 -2 452 -3 1139 -1723z"/>
</g>
</svg>
