<?xml version="1.0" standalone="no"?>
<!DOCTYPE svg PUBLIC "-//W3C//DTD SVG 20010904//EN"
 "http://www.w3.org/TR/2001/REC-SVG-20010904/DTD/svg10.dtd">
<svg version="1.0" xmlns="http://www.w3.org/2000/svg"
 width="1440.000000pt" height="1440.000000pt" viewBox="0 0 1440.000000 1440.000000"
 preserveAspectRatio="xMidYMid meet">
<metadata>
Created by potrace 1.14, written by Peter Selinger 2001-2017
</metadata>
<g transform="translate(0.000000,1440.000000) scale(0.100000,-0.100000)"
fill="#000000" stroke="none">
<path d="M2915 14393 c-824 -36 -1621 -421 -2157 -1042 -415 -480 -655 -1022
-735 -1661 -17 -138 -18 -353 -18 -4495 0 -4142 1 -4357 18 -4495 54 -429 176
-804 379 -1161 34 -60 64 -107 66 -104 3 3 11 67 18 142 7 76 17 194 24 263
23 254 50 441 86 590 23 92 98 300 138 378 17 35 61 214 77 317 16 104 17 315
1 383 -7 30 -32 109 -56 175 -63 174 -86 291 -86 435 0 665 405 1600 999 2307
105 125 405 429 530 537 248 215 403 291 986 483 471 156 721 257 1015 412
361 191 616 364 1085 738 l242 194 8 153 c20 407 -6 684 -92 993 -54 195 -131
348 -191 379 -16 8 -42 30 -57 48 -69 81 -175 370 -268 732 l-52 201 1 170 c0
247 27 338 131 447 81 86 104 145 114 292 13 205 34 348 90 631 58 290 141
590 191 690 72 142 239 340 383 455 200 158 492 309 705 365 36 10 119 25 185
35 117 17 69 18 -1785 17 -1048 -1 -1936 -2 -1975 -4z"/>
<path d="M7158 14393 l42 -4 0 -2269 0 -2268 -126 -279 c-70 -153 -177 -390
-240 -527 -62 -138 -111 -253 -108 -258 3 -4 111 -8 241 -8 l236 0 -6 -1027
c-4 -566 -7 -1721 -7 -2567 0 -847 -2 -1537 -4 -1535 -3 3 -6 46 -7 97 -2 94
-11 111 -39 77 -10 -12 -10 -15 3 -15 9 0 18 -4 21 -9 3 -5 0 -9 -7 -8 -33 1
-47 -4 -47 -19 0 -10 -6 -14 -14 -11 -17 7 -36 -11 -30 -28 3 -7 -2 -15 -11
-19 -10 -4 -14 -2 -9 6 5 7 3 8 -5 4 -7 -5 -10 -14 -7 -22 3 -9 -1 -11 -12 -8
-13 5 -13 2 3 -11 19 -16 19 -16 -10 -9 -27 6 -28 5 -17 -8 11 -14 9 -17 -20
-24 -18 -4 -27 -9 -20 -11 10 -4 10 -8 1 -19 -9 -11 -8 -14 1 -14 8 0 10 -3 7
-6 -4 -4 -14 -1 -24 7 -15 12 -16 12 -10 -5 6 -15 5 -17 -6 -8 -16 14 -28 6
-20 -14 3 -8 -1 -14 -8 -14 -11 0 -11 -3 1 -11 12 -9 11 -10 -8 -6 -15 4 -25
-1 -32 -13 -13 -25 -12 -39 1 -20 9 13 10 13 6 0 -2 -8 -11 -14 -20 -12 -13 2
-34 -31 -29 -49 0 -3 -9 -5 -22 -4 -18 2 -23 -1 -19 -15 4 -13 -4 -23 -26 -34
-22 -12 -31 -13 -31 -5 0 7 -3 9 -7 6 -3 -4 2 -17 13 -29 10 -12 14 -18 8 -15
-12 7 -29 -20 -25 -38 1 -5 -4 -4 -11 4 -10 11 -10 14 0 18 6 3 9 9 6 14 -8
13 -33 -21 -34 -45 0 -14 -5 -17 -21 -13 -14 4 -19 2 -16 -7 3 -7 1 -19 -4
-27 -7 -12 -9 -12 -9 0 0 11 -3 11 -15 1 -8 -7 -13 -16 -10 -20 3 -5 1 -11 -5
-15 -6 -4 -7 -11 -4 -17 4 -7 2 -8 -5 -4 -6 4 -8 13 -5 19 4 7 -3 2 -15 -10
-11 -12 -21 -26 -20 -30 3 -20 -2 -32 -19 -37 -9 -3 -22 -16 -27 -28 -6 -15
-18 -23 -33 -22 -12 0 -22 -5 -22 -13 0 -8 -4 -11 -10 -8 -5 3 -10 0 -10 -9 0
-8 -6 -17 -12 -19 -8 -3 -6 -6 5 -6 9 -1 17 4 17 9 0 6 7 10 15 10 8 0 15 -5
15 -11 0 -5 -4 -8 -9 -5 -4 3 -16 -3 -26 -14 -14 -15 -21 -17 -32 -9 -9 9 -13
8 -13 0 0 -6 -13 -25 -30 -43 -16 -17 -30 -40 -30 -51 0 -16 -3 -18 -12 -9
-17 17 -28 15 -28 -7 0 -19 -25 -35 -40 -26 -5 3 -12 0 -16 -6 -4 -7 -3 -9 3
-6 6 4 13 0 17 -8 3 -8 1 -15 -5 -15 -6 0 -7 -6 -3 -12 5 -9 2 -9 -9 1 -15 12
-17 11 -17 -2 0 -9 -9 -21 -20 -27 -14 -8 -19 -17 -15 -30 3 -10 1 -21 -4 -25
-7 -4 -8 1 -4 11 6 16 4 16 -19 -1 -21 -16 -23 -22 -11 -33 18 -19 16 -27 -3
-11 -12 10 -17 10 -23 0 -5 -7 -12 -13 -17 -12 -5 0 -9 -8 -8 -19 1 -21 -22
-35 -31 -20 -4 6 -1 10 6 10 7 0 10 3 7 6 -12 11 -46 -16 -52 -42 -8 -31 1
-45 14 -24 7 11 10 11 10 2 0 -13 -47 -35 -59 -27 -5 2 -17 -2 -27 -10 -18
-15 -18 -15 1 -9 17 6 17 3 -5 -18 -14 -14 -28 -24 -32 -22 -3 2 -4 -4 -1 -15
3 -13 -2 -20 -17 -24 -14 -3 -20 -12 -18 -24 2 -12 -2 -17 -14 -15 -9 1 -19
-6 -23 -17 -3 -12 -12 -18 -20 -15 -8 3 -16 -4 -21 -18 -4 -13 -16 -31 -26
-40 -11 -9 -17 -22 -13 -29 5 -8 1 -9 -14 -4 -19 6 -21 3 -17 -19 4 -23 2 -26
-18 -22 -16 3 -32 -6 -56 -31 -19 -19 -30 -34 -25 -33 24 5 27 -1 9 -15 -21
-16 -38 -20 -30 -6 3 5 -1 11 -9 14 -9 4 -12 1 -8 -9 3 -7 0 -14 -6 -14 -6 0
-8 -7 -5 -15 4 -8 1 -15 -5 -15 -6 0 -8 -6 -5 -14 3 -9 -6 -18 -27 -25 -18 -6
-29 -14 -26 -18 4 -3 -2 -12 -13 -20 -10 -7 -18 -19 -16 -26 1 -6 1 -9 -1 -4
-9 15 -21 6 -27 -18 -4 -14 -11 -23 -16 -20 -6 3 -14 -5 -20 -19 -5 -14 -12
-26 -15 -26 -4 0 -4 4 -1 8 2 4 1 14 -5 22 -6 11 -9 6 -9 -17 0 -35 -11 -47
-50 -52 -5 0 -10 -10 -10 -22 0 -11 -4 -17 -10 -14 -5 3 -10 -2 -10 -12 0 -15
-2 -16 -10 -3 -5 8 -10 13 -11 10 -11 -65 -15 -71 -30 -50 -9 13 -10 13 -6 -1
6 -19 -32 -57 -55 -53 -14 2 -16 -1 -8 -16 7 -13 6 -20 -6 -24 -10 -4 -13 -1
-9 7 4 6 0 4 -9 -7 -8 -10 -19 -15 -25 -12 -5 4 -12 2 -16 -4 -3 -5 -1 -10 4
-10 6 0 11 -7 11 -15 0 -8 -5 -15 -11 -15 -5 0 -7 5 -3 12 4 7 3 8 -5 4 -6 -4
-9 -11 -6 -16 3 -4 2 -15 -1 -24 -5 -13 -9 -14 -20 -5 -12 9 -14 7 -12 -12 2
-15 -2 -23 -10 -21 -7 1 -16 -8 -21 -21 -5 -12 -20 -29 -34 -36 -15 -8 -23
-19 -20 -27 3 -8 -1 -14 -11 -14 -9 0 -16 -5 -16 -11 0 -5 -4 -7 -10 -4 -5 3
-10 -1 -10 -11 0 -12 -6 -15 -21 -11 -17 4 -19 3 -10 -6 6 -6 11 -17 11 -25 0
-12 -3 -12 -15 -2 -12 10 -15 10 -15 -3 0 -17 -26 -42 -32 -30 -3 4 -4 3 -2
-3 1 -5 -9 -21 -23 -34 -18 -18 -27 -20 -32 -11 -6 10 -10 9 -14 -4 -4 -9 -3
-14 2 -11 5 3 11 0 14 -8 6 -16 -23 -17 -36 -1 -5 6 -6 0 -2 -12 4 -16 1 -23
-14 -28 -13 -4 -17 -12 -14 -25 3 -12 0 -20 -7 -20 -7 0 -10 -7 -6 -17 4 -12
-1 -9 -15 7 -11 14 -18 19 -14 12 4 -8 -2 -22 -14 -33 -20 -19 -26 -33 -21
-54 1 -5 -1 -7 -5 -3 -9 8 -35 -16 -35 -31 0 -6 -6 -10 -12 -8 -7 1 -12 -3
-11 -9 1 -6 -8 -10 -21 -9 -17 2 -22 -2 -22 -18 1 -16 -6 -23 -29 -27 -24 -4
-30 -10 -30 -30 0 -14 -6 -29 -12 -33 -7 -4 -13 -15 -13 -24 0 -13 -2 -14 -17
-2 -11 10 -14 10 -9 2 4 -8 1 -13 -8 -13 -10 0 -13 -6 -10 -15 6 -14 2 -17
-28 -19 -22 -2 -27 -20 -11 -38 12 -13 13 -18 3 -18 -7 0 -19 8 -27 18 -10 12
-13 13 -10 2 6 -21 -11 -50 -28 -50 -8 0 -15 -5 -15 -11 0 -7 -8 -18 -17 -26
-10 -8 -12 -12 -5 -8 7 3 12 0 12 -8 0 -9 -14 -17 -35 -21 -20 -4 -33 -11 -30
-16 3 -5 -3 -11 -14 -15 -10 -3 -18 -13 -17 -23 0 -10 -6 -16 -16 -16 -10 1
-18 -5 -18 -13 0 -8 -5 -11 -12 -7 -7 5 -9 2 -6 -8 4 -8 -2 -28 -13 -44 -21
-32 -26 -26 -8 9 12 22 12 22 -10 3 -13 -12 -19 -26 -15 -38 5 -17 -4 -22 -43
-21 -6 0 -9 -6 -6 -13 6 -17 -8 -18 -27 -2 -8 7 -7 4 3 -8 20 -24 22 -35 5
-31 -8 1 -12 -6 -10 -18 2 -15 1 -17 -6 -6 -8 11 -14 11 -33 -3 -13 -9 -20
-16 -16 -16 4 0 -1 -9 -10 -19 -9 -11 -20 -18 -25 -15 -4 3 -5 -2 -2 -10 5
-14 -27 -68 -40 -67 -21 2 -26 0 -21 -9 3 -5 -6 -12 -20 -16 -20 -5 -23 -9
-14 -20 8 -10 6 -12 -10 -9 -12 2 -21 0 -21 -6 0 -5 6 -9 13 -10 6 0 -3 -7
-21 -15 -18 -8 -30 -19 -27 -24 4 -6 11 -7 17 -4 6 4 9 1 6 -6 -2 -8 -10 -16
-18 -18 -7 -3 -10 0 -6 7 4 6 2 11 -5 11 -7 0 -10 -11 -7 -32 4 -26 3 -28 -7
-15 -16 22 -39 22 -31 1 4 -10 2 -13 -6 -8 -7 5 -9 2 -5 -9 4 -11 1 -15 -13
-12 -12 2 -21 -3 -25 -16 -4 -11 -11 -17 -16 -14 -5 4 -9 1 -9 -5 0 -7 -6 -10
-14 -7 -9 4 -12 0 -9 -11 2 -10 -12 -35 -36 -62 -31 -35 -37 -48 -30 -62 13
-24 -65 -23 4334 -26 4001 -2 3750 -6 4047 53 1190 237 2146 1193 2383 2383
59 298 55 -18 55 4757 0 4775 4 4459 -55 4757 -134 672 -506 1295 -1040 1738
-390 324 -855 547 -1343 645 -312 62 -163 59 -2612 60 -1229 1 -2216 0 -2192
-2z m-768 -11413 c0 -5 -5 -10 -11 -10 -5 0 -7 5 -4 10 3 6 8 10 11 10 2 0 4
-4 4 -10z m-340 -319 c0 -6 -4 -13 -10 -16 -5 -3 -10 1 -10 9 0 9 5 16 10 16
6 0 10 -4 10 -9z m-680 -731 c0 -5 -5 -10 -11 -10 -5 0 -7 5 -4 10 3 6 8 10
11 10 2 0 4 -4 4 -10z m-797 -863 c-2 -4 -8 -5 -13 -2 -4 3 -10 0 -12 -6 -2
-7 -8 -6 -16 4 -11 12 -8 15 17 13 16 0 27 -4 24 -9z m-272 -294 c13 -16 12
-17 -3 -4 -17 13 -22 21 -14 21 2 0 10 -8 17 -17z"/>
<path d="M6741 3421 c-9 -6 -10 -11 -2 -15 6 -4 11 -2 11 4 0 6 5 8 10 5 6 -3
10 -1 10 4 0 13 -10 14 -29 2z"/>
<path d="M6467 3123 c3 -7 9 -10 14 -7 14 8 11 21 -5 21 -8 0 -12 -6 -9 -14z"/>
<path d="M5445 2050 c3 -5 8 -10 11 -10 2 0 4 5 4 10 0 6 -5 10 -11 10 -5 0
-7 -4 -4 -10z"/>
<path d="M2902 1630 c-38 -80 -95 -199 -127 -265 -31 -66 -86 -183 -123 -260
-36 -77 -145 -297 -240 -490 -118 -237 -180 -373 -193 -424 -10 -41 -18 -75
-17 -76 9 -6 179 -47 268 -64 219 -43 337 -51 727 -51 292 0 373 3 373 13 0 6
-39 125 -86 262 -47 138 -177 525 -289 860 -112 336 -208 617 -214 625 -7 11
-26 -20 -79 -130z"/>
<path d="M5015 1610 c-3 -5 1 -10 10 -10 9 0 13 5 10 10 -3 6 -8 10 -10 10 -2
0 -7 -4 -10 -10z"/>
<path d="M4603 1185 c7 -7 14 -10 17 -6 3 3 9 9 13 12 4 4 -3 7 -17 7 -19 0
-22 -3 -13 -13z"/>
<path d="M3925 461 c-3 -5 -1 -12 5 -16 5 -3 10 1 10 9 0 18 -6 21 -15 7z"/>
<path d="M3905 430 c-3 -5 1 -10 10 -10 9 0 13 5 10 10 -3 6 -8 10 -10 10 -2
0 -7 -4 -10 -10z"/>
<path d="M3705 241 c-3 -5 -2 -12 3 -15 5 -3 9 1 9 9 0 17 -3 19 -12 6z"/>
</g>
</svg>
